<?xml version="1.0" encoding="UTF-8"?>
<svg width="700pt" height="700pt" version="1.1" viewBox="90 105 520 350" xmlns="http://www.w3.org/2000/svg">
 <g>
  <path d="m350 29.168c-66.523 0-130.32 26.426-177.37 73.465-47.039 47.043-73.465 110.84-73.465 177.37s26.426 130.32 73.465 177.37c47.043 47.039 110.84 73.465 177.37 73.465s130.32-26.426 177.37-73.465c47.039-47.043 73.465-110.84 73.465-177.37-0.058593-66.508-26.508-130.27-73.535-177.3s-110.79-73.477-177.3-73.535zm0 466.67v-0.003907c-57.242 0-112.14-22.738-152.62-63.215-40.477-40.477-63.215-95.375-63.215-152.62s22.738-112.14 63.215-152.62c40.477-40.477 95.375-63.215 152.62-63.215s112.14 22.738 152.62 63.215c40.477 40.477 63.215 95.375 63.215 152.62-0.058593 57.223-22.82 112.09-63.281 152.55-40.465 40.461-95.328 63.223-152.55 63.281z"/>
  <path d="m396.67 306.6c21.391-13.77 35.754-36.145 39.363-61.328 3.6055-25.184-3.8945-50.691-20.559-69.914-16.664-19.223-40.848-30.266-66.289-30.266s-49.629 11.043-66.293 30.266-24.164 44.73-20.555 69.914c3.6094 25.184 17.973 47.559 39.363 61.328-36.695 15.102-62.688 48.457-68.367 87.73-0.59766 4.5781 0.63672 9.2031 3.4336 12.875s6.9297 6.0898 11.5 6.7266h2.3359c4.2617 0.039062 8.3945-1.4805 11.617-4.2734 3.2227-2.793 5.3125-6.668 5.8828-10.895 3.3945-19.105 13.523-36.367 28.547-48.652 15.023-12.281 33.949-18.781 53.352-18.312 21.98 0.078125 43.133 8.4062 59.266 23.332 12.578 11.801 20.801 27.508 23.336 44.566 1.7812 5.25 5.9453 9.3398 11.227 11.031 5.2773 1.6953 11.043 0.78516 15.547-2.4492 4.5039-3.2305 7.207-8.4062 7.293-13.949-3.582-25.074-15.695-48.145-34.301-65.332-10.488-9.5117-22.574-17.094-35.699-22.398zm-46.668-125.77c13.926 0 27.277 5.5312 37.125 15.379 9.8438 9.8438 15.375 23.199 15.375 37.121 0 13.926-5.5312 27.277-15.375 37.125-9.8477 9.8438-23.199 15.375-37.125 15.375s-27.277-5.5312-37.125-15.375c-9.8438-9.8477-15.375-23.199-15.375-37.125 0-13.922 5.5312-27.277 15.375-37.121 9.8477-9.8477 23.199-15.379 37.125-15.379z"/>
 </g>
</svg>
