
<?xml version="1.0" encoding="UTF-8"?>
<svg width="1200pt" height="1200pt" version="1.1" viewBox="0 0 1200 1200" xmlns="http://www.w3.org/2000/svg">
 <g>
  <path d="m1118.9 0h-477.85c-44.113 0-79.992 35.879-79.992 80.004v293.35c0 44.113 35.879 79.992 79.992 79.992h16.777c-8.9883 27.238-26.426 65.363-57.145 83.797-10.547 6.3008-15.422 19.02-11.773 30.742 3.4688 11.219 13.824 18.793 25.477 18.793 0.51562 0 1.0312-0.023438 1.5859-0.046876 7.4648-0.44531 175.85-11.855 230.07-133.29h276.43c1.6562 0 3.2773-0.15625 4.8359-0.44531 40.176-4.2227 71.578-38.281 71.578-79.547v-293.34c0-44.074-35.867-79.969-79.992-80.016zm26.68 373.36c0 14.711-11.953 26.664-26.676 26.664h-291.14c-11.605 0-21.863 7.4766-25.391 18.516-17.688 55.078-69.406 84-114.37 99.023 23.148-41.723 30.145-83.902 30.602-86.688 1.2227-7.7031-0.98438-15.562-6.0469-21.504-5.0742-5.9531-12.469-9.3477-20.281-9.3477h-51.203c-14.711 0-26.664-11.953-26.664-26.664l-0.007813-293.35c0-14.723 11.953-26.676 26.664-26.676l477.85 0.035156c14.723 0 26.676 11.953 26.676 26.664l0.003907 293.33z"/>
  <path d="m494.41 573.35c0 73.637-59.691 133.33-133.33 133.33-73.637 0-133.33-59.695-133.33-133.33 0-73.637 59.695-133.33 133.33-133.33 73.641 0 133.33 59.695 133.33 133.33"/>
  <path d="m987.73 1053.3c0-36.828-29.844-66.684-66.672-66.684h-1.4883l-26.293-87.648c-4.2227-14.102-19.055-22.066-33.203-17.902-14.113 4.2461-22.117 19.117-17.891 33.215l21.695 72.336h-122.82l-139.98-186.66c-12.59-16.789-32.34-26.676-53.34-26.676h-309.71l-103.62-165.77v-274.2c0-36.828-29.844-66.672-66.66-66.672-36.824 0-66.656 29.832-66.656 66.672v293.33c0 12.492 3.5156 24.742 10.129 35.316l109.86 259.67v131.69l-0.003906 146.64h453.32v-213.32l79.992 106.66c12.602 16.801 32.34 26.688 53.34 26.688h196.15l18.301 60.973c3.4688 11.555 14.066 19.008 25.547 19.008 2.5312 0 5.1133-0.35938 7.6562-1.1289 14.113-4.2344 22.117-19.105 17.891-33.203l-16.801-56.039c18.711-11.809 31.25-32.508 31.25-56.281z"/>
 </g>
</svg>
