
<svg version="1.1" xmlns="http://www.w3.org/2000/svg" xmlns:xlink="http://www.w3.org/1999/xlink" viewBox="258.06 130.54 199.43 329.04">  <g>   <path d="m457.48 158.75-28.215-28.215-158.9 149.07c-5.6367 3.7617-12.309 9.375-12.309 15.09 0 5.5469 5.9922 11.051 11.41 14.961l159.8 149.92 28.215-28.215-145.3-136.32z" fill-rule="evenodd"/>   <use y="669.078125" xlink:href="#u"/>   <use x="36.597656" y="669.078125" xlink:href="#c"/>   <use x="61.1875" y="669.078125" xlink:href="#a"/>   <use x="95.007813" y="669.078125" xlink:href="#b"/>   <use x="128.660156" y="669.078125" xlink:href="#d"/>   <use x="152.496094" y="669.078125" xlink:href="#a"/>   <use x="186.316406" y="669.078125" xlink:href="#f"/>   <use x="239.371094" y="669.078125" xlink:href="#k"/>   <use x="275.066406" y="669.078125" xlink:href="#j"/>   <use x="324.933594" y="669.078125" xlink:href="#i"/>   <use x="366.324219" y="669.078125" xlink:href="#b"/>   <use x="399.976562" y="669.078125" xlink:href="#t"/>   <use x="432.480469" y="669.078125" xlink:href="#s"/>   <use x="449.574219" y="669.078125" xlink:href="#f"/>   <use x="502.628906" y="669.078125" xlink:href="#h"/>   <use x="539.175781" y="669.078125" xlink:href="#b"/>   <use x="572.828125" y="669.078125" xlink:href="#c"/>   <use x="597.417969" y="669.078125" xlink:href="#a"/>   <use x="631.238281" y="669.078125" xlink:href="#g"/>   <use x="648.332031" y="669.078125" xlink:href="#b"/>   <use y="718.945312" xlink:href="#r"/>   <use x="21.695312" y="718.945312" xlink:href="#c"/>   <use x="46.285156" y="718.945312" xlink:href="#e"/>   <use x="80.546875" y="718.945312" xlink:href="#q"/>   <use x="149.867188" y="718.945312" xlink:href="#d"/>   <use x="173.703125" y="718.945312" xlink:href="#p"/>   <use x="209.203125" y="718.945312" xlink:href="#a"/>   <use x="260.382812" y="718.945312" xlink:href="#o"/>   <use x="302.117188" y="718.945312" xlink:href="#e"/>   <use x="336.375" y="718.945312" xlink:href="#n"/>   <use x="371.878906" y="718.945312" xlink:href="#m"/>   <use x="424.738281" y="718.945312" xlink:href="#h"/>   <use x="461.285156" y="718.945312" xlink:href="#c"/>   <use x="485.878906" y="718.945312" xlink:href="#e"/>   <use x="520.136719" y="718.945312" xlink:href="#g"/>   <use x="537.230469" y="718.945312" xlink:href="#a"/>   <use x="571.050781" y="718.945312" xlink:href="#l"/>   <use x="600.609375" y="718.945312" xlink:href="#d"/>  </g> </svg>