
<?xml version="1.0" encoding="UTF-8"?>
<svg width="700pt" height="700pt" version="1.1" viewBox="0 0 700 700" xmlns="http://www.w3.org/2000/svg">
 <path d="m519.17 211.87 23.332-23.332-66.734-65.102-23.332 23.332c-24.031-15.074-50.996-24.859-79.102-28.699v-24.734h46.668v-46.664h-140v46.664h46.668v24.734c-42.715 5.0078-82.652 23.73-113.82 53.359-31.172 29.625-51.895 68.562-59.059 110.97-7.1641 42.402-0.38672 85.988 19.32 124.21 19.703 38.227 51.273 69.031 89.969 87.793 38.699 18.762 82.434 24.469 124.65 16.266 42.215-8.2031 80.633-29.871 109.49-61.758 28.852-31.891 46.59-72.273 50.547-115.1 3.957-42.82-6.0781-85.773-28.598-122.41zm-169.17 254.8c-40.207-0.0625-78.746-16.062-107.18-44.492-28.43-28.43-44.43-66.969-44.492-107.18h151.67v-151.67c54.184 0 104.25 28.91 131.35 75.836s27.094 104.74 0 151.66-77.164 75.836-131.35 75.836z"/>
</svg>
