<svg version="1.1" xmlns="http://www.w3.org/2000/svg" xmlns:xlink="http://www.w3.org/1999/xlink" viewBox="109.2 50.4 481.6 442.4"><g>   <path d="m249.2 403.2c12.879 0 25.762-1.6797 38.641-5.6016 19.602 21.281 47.039 33.602 76.16 33.602 48.16 0 90.16-34.16 100.8-80.641 72.238-11.758 126-74.48 126-148.96 0-83.441-67.762-151.2-151.2-151.2-58.238 0-110.32 32.48-135.52 84-17.359-7.2812-35.84-11.199-54.879-11.199-77.281 0-140 62.723-140 140 0 77.281 62.723 140 140 140zm0-257.6c19.039 0 38.078 4.4805 55.441 14 2.8008 1.6797 6.1602 1.6797 8.9609 0.55859 2.8008-1.1211 5.6016-3.3594 6.7188-6.1602 19.602-49.281 66.641-81.199 119.28-81.199 71.121 0 128.8 57.68 128.8 128.8 0 65.52-49.281 120.4-114.24 128.24-5.0391 0.55859-8.9609 4.4805-10.078 9.5195-5.6016 39.762-40.32 69.441-80.078 69.441-25.199 0-48.16-11.199-63.84-30.801-2.2383-2.8008-5.6016-4.4805-8.9609-4.4805-1.1211 0-2.2383 0-3.9219 0.55859-11.766 4.4805-25.207 6.7227-38.086 6.7227-64.961 0-117.6-52.641-117.6-117.6 0.003906-64.961 52.641-117.6 117.6-117.6z"></path>   <path d="m568.4 442.4c0-28-22.398-50.398-50.398-50.398s-50.398 22.398-50.398 50.398 22.398 50.398 50.398 50.398c28 0.003906 50.398-22.398 50.398-50.398zm-78.398 0c0-15.68 12.32-28 28-28s28 12.32 28 28c0 15.68-12.32 28-28 28s-28-12.32-28-28z"></path>   <path d="m268.8 249.2c0 13.918-11.285 25.199-25.199 25.199-13.918 0-25.203-11.281-25.203-25.199s11.285-25.199 25.203-25.199c13.914 0 25.199 11.281 25.199 25.199"></path>   <path d="m375.2 249.2c0 13.918-11.281 25.199-25.199 25.199s-25.199-11.281-25.199-25.199 11.281-25.199 25.199-25.199 25.199 11.281 25.199 25.199"></path>   <path d="m481.6 249.2c0 13.918-11.285 25.199-25.203 25.199-13.914 0-25.199-11.281-25.199-25.199s11.285-25.199 25.199-25.199c13.918 0 25.203 11.281 25.203 25.199"></path>   <use x="70" y="644" xlink:href="#t"></use>   <use x="90.550781" y="644" xlink:href="#c"></use>   <use x="104.359375" y="644" xlink:href="#a"></use>   <use x="123.347656" y="644" xlink:href="#j"></use>   <use x="142.242188" y="644" xlink:href="#b"></use>   <use x="155.628906" y="644" xlink:href="#a"></use>   <use x="174.617188" y="644" xlink:href="#e"></use>   <use x="204.410156" y="644" xlink:href="#i"></use>   <use x="224.453125" y="644" xlink:href="#h"></use>   <use x="252.453125" y="644" xlink:href="#g"></use>   <use x="271.550781" y="644" xlink:href="#c"></use>   <use x="285.359375" y="644" xlink:href="#s"></use>   <use x="294.957031" y="644" xlink:href="#e"></use>   <use x="315" y="644" xlink:href="#a"></use>   <use x="333.992188" y="644" xlink:href="#f"></use>   <use x="353.921875" y="644" xlink:href="#b"></use>   <use x="70" y="672" xlink:href="#r"></use>   <use x="82.183594" y="672" xlink:href="#c"></use>   <use x="95.992188" y="672" xlink:href="#d"></use>   <use x="115.226562" y="672" xlink:href="#q"></use>   <use x="154.152344" y="672" xlink:href="#b"></use>   <use x="167.535156" y="672" xlink:href="#p"></use>   <use x="187.46875" y="672" xlink:href="#a"></use>   <use x="216.207031" y="672" xlink:href="#o"></use>   <use x="239.640625" y="672" xlink:href="#d"></use>   <use x="258.878906" y="672" xlink:href="#n"></use>   <use x="278.8125" y="672" xlink:href="#f"></use>   <use x="308.492188" y="672" xlink:href="#m"></use>   <use x="329.015625" y="672" xlink:href="#c"></use>   <use x="342.820312" y="672" xlink:href="#d"></use>   <use x="362.058594" y="672" xlink:href="#l"></use>   <use x="371.65625" y="672" xlink:href="#a"></use>   <use x="390.648438" y="672" xlink:href="#k"></use>   <use x="407.242188" y="672" xlink:href="#b"></use>  </g> </svg>