
<?xml version="1.0" encoding="UTF-8"?>
<svg width="700pt" height="700pt" version="1.1" viewBox="0 0 700 700" xmlns="http://www.w3.org/2000/svg" xmlns:xlink="http://www.w3.org/1999/xlink">
  <g>
  <path d="m484.9 66.863h-54.098l0.003906-14.223c0-4.6484-3.7539-8.3984-8.3984-8.3984h-41.273c-3.3594-14.113-16.016-24.641-31.137-24.641s-27.777 10.527-31.137 24.641h-41.273c-4.6484 0-8.3984 3.7539-8.3984 8.3984v14.223h-54.098c-20.887 0-37.855 16.969-37.855 37.855v397.82c0 20.887 16.969 37.855 37.855 37.855h269.81c20.887 0 37.855-16.969 37.855-37.855l0.003907-397.82c0-20.887-16.969-37.855-37.859-37.855zm-134.9-30.465c8.3984 0 15.23 6.832 15.23 15.23 0 8.4023-6.832 15.234-15.23 15.234s-15.23-6.832-15.23-15.23c0-8.4023 6.832-15.234 15.23-15.234zm-64.008 24.641h33.375c4.0312 13.105 16.238 22.625 30.633 22.625 14.391 0 26.602-9.5742 30.633-22.625h33.375v42.336h-128.02zm219.97 441.5c0 11.594-9.4648 21.055-21.055 21.055l-269.81 0.003906c-11.594 0-21.055-9.4648-21.055-21.055l-0.003907-397.83c0-11.594 9.4648-21.055 21.055-21.055h54.098v28.113c0 4.6484 3.7539 8.3984 8.3984 8.3984h144.87c4.6484 0 8.3984-3.7539 8.3984-8.3984v-28.113h54.098c11.594 0 21.055 9.4648 21.055 21.055l0.003906 397.82z"/>
  <path d="m401.46 255.14c-3.6406-2.9102-8.9023-2.2969-11.816 1.2891l-58.52 73.191-20.832-26.039c-2.9102-3.6406-8.1758-4.1992-11.816-1.2891-3.6406 2.9102-4.1992 8.1758-1.2891 11.816l27.383 34.215c1.5664 2.0156 4.0312 3.1367 6.5508 3.1367s4.9844-1.1758 6.5508-3.1367l65.129-81.367c2.9141-3.6406 2.3008-8.9062-1.3398-11.816z"/>
  <path d="m350 175.28c-70.113 0-127.12 57.008-127.12 127.12 0 70.109 57.008 127.12 127.12 127.12s127.12-57.008 127.12-127.12c0-70.109-57.008-127.12-127.12-127.12zm0 237.44c-60.816 0-110.32-49.504-110.32-110.32 0-60.812 49.504-110.32 110.32-110.32s110.32 49.508 110.32 110.32c0 60.816-49.504 110.32-110.32 110.32z"/>
  <use x="70" y="644" xlink:href="#x"/>
  <use x="90.550781" y="644" xlink:href="#c"/>
  <use x="104.359375" y="644" xlink:href="#a"/>
  <use x="123.347656" y="644" xlink:href="#e"/>
  <use x="142.242188" y="644" xlink:href="#b"/>
  <use x="155.628906" y="644" xlink:href="#a"/>
  <use x="174.617188" y="644" xlink:href="#k"/>
  <use x="204.410156" y="644" xlink:href="#j"/>
  <use x="224.453125" y="644" xlink:href="#i"/>
  <use x="252.453125" y="644" xlink:href="#h"/>
  <use x="262.867188" y="644" xlink:href="#g"/>
  <use x="282.804688" y="644" xlink:href="#w"/>
  <use x="299.46875" y="644" xlink:href="#b"/>
  <use x="312.851562" y="644" xlink:href="#v"/>
  <use x="322.453125" y="644" xlink:href="#f"/>
  <use x="352.132812" y="644" xlink:href="#u"/>
  <use x="373.476562" y="644" xlink:href="#t"/>
  <use x="383.070312" y="644" xlink:href="#e"/>
  <use x="401.96875" y="644" xlink:href="#s"/>
  <use x="420.585938" y="644" xlink:href="#a"/>
  <use x="70" y="672" xlink:href="#r"/>
  <use x="82.183594" y="672" xlink:href="#c"/>
  <use x="95.992188" y="672" xlink:href="#d"/>
  <use x="115.226562" y="672" xlink:href="#q"/>
  <use x="154.152344" y="672" xlink:href="#b"/>
  <use x="167.535156" y="672" xlink:href="#p"/>
  <use x="187.46875" y="672" xlink:href="#a"/>
  <use x="216.207031" y="672" xlink:href="#o"/>
  <use x="239.640625" y="672" xlink:href="#d"/>
  <use x="258.878906" y="672" xlink:href="#g"/>
  <use x="278.8125" y="672" xlink:href="#f"/>
  <use x="308.492188" y="672" xlink:href="#n"/>
  <use x="329.015625" y="672" xlink:href="#c"/>
  <use x="342.820312" y="672" xlink:href="#d"/>
  <use x="362.058594" y="672" xlink:href="#m"/>
  <use x="371.65625" y="672" xlink:href="#a"/>
  <use x="390.648438" y="672" xlink:href="#l"/>
  <use x="407.242188" y="672" xlink:href="#b"/>
 </g>
</svg>
