<svg version="1.1" xmlns="http://www.w3.org/2000/svg" xmlns:xlink="http://www.w3.org/1999/xlink" viewBox="95.45 25.45 509.1 509.1">    <g>   <path d="m393.19 280 202.41-202.4c11.934-11.93 11.934-31.27 0-43.195-11.922-11.93-31.273-11.93-43.191 0l-202.41 202.4-202.4-202.41c-11.93-11.93-31.273-11.93-43.195 0-11.93 11.93-11.93 31.27 0 43.195l202.4 202.41-202.41 202.41c-11.93 11.93-11.93 31.27 0 43.191 5.9688 5.9648 13.781 8.9492 21.602 8.9492s15.633-2.9844 21.602-8.9492l202.4-202.41 202.41 202.41c5.9609 5.9648 13.777 8.9492 21.594 8.9492s15.633-2.9844 21.594-8.9492c11.934-11.93 11.934-31.27 0-43.191z"></path>   <use x="70" y="636.363281" xlink:href="#w"></use>   <use x="88.679688" y="636.363281" xlink:href="#b"></use>   <use x="101.234375" y="636.363281" xlink:href="#a"></use>   <use x="118.496094" y="636.363281" xlink:href="#e"></use>   <use x="135.675781" y="636.363281" xlink:href="#d"></use>   <use x="147.84375" y="636.363281" xlink:href="#a"></use>   <use x="165.105469" y="636.363281" xlink:href="#j"></use>   <use x="192.1875" y="636.363281" xlink:href="#i"></use>   <use x="210.410156" y="636.363281" xlink:href="#h"></use>   <use x="235.863281" y="636.363281" xlink:href="#g"></use>   <use x="253.226562" y="636.363281" xlink:href="#b"></use>   <use x="265.78125" y="636.363281" xlink:href="#a"></use>   <use x="283.046875" y="636.363281" xlink:href="#v"></use>   <use x="299.636719" y="636.363281" xlink:href="#c"></use>   <use x="317.125" y="636.363281" xlink:href="#b"></use>   <use x="338.539062" y="636.363281" xlink:href="#u"></use>   <use x="359.667969" y="636.363281" xlink:href="#t"></use>   <use x="374.820312" y="636.363281" xlink:href="#c"></use>   <use x="392.308594" y="636.363281" xlink:href="#f"></use>   <use x="410.429688" y="636.363281" xlink:href="#s"></use>   <use x="425.246094" y="636.363281" xlink:href="#e"></use>   <use x="70" y="661.816406" xlink:href="#r"></use>   <use x="81.074219" y="661.816406" xlink:href="#b"></use>   <use x="93.628906" y="661.816406" xlink:href="#c"></use>   <use x="111.113281" y="661.816406" xlink:href="#q"></use>   <use x="146.5" y="661.816406" xlink:href="#d"></use>   <use x="158.667969" y="661.816406" xlink:href="#p"></use>   <use x="176.789062" y="661.816406" xlink:href="#a"></use>   <use x="202.914062" y="661.816406" xlink:href="#o"></use>   <use x="224.21875" y="661.816406" xlink:href="#c"></use>   <use x="241.707031" y="661.816406" xlink:href="#f"></use>   <use x="259.828125" y="661.816406" xlink:href="#n"></use>   <use x="286.8125" y="661.816406" xlink:href="#m"></use>   <use x="305.46875" y="661.816406" xlink:href="#b"></use>   <use x="318.019531" y="661.816406" xlink:href="#c"></use>   <use x="335.507812" y="661.816406" xlink:href="#l"></use>   <use x="344.234375" y="661.816406" xlink:href="#a"></use>   <use x="361.496094" y="661.816406" xlink:href="#k"></use>   <use x="376.585937" y="661.816406" xlink:href="#d"></use>  </g> </svg>