<svg version="1.1" xmlns="http://www.w3.org/2000/svg" xmlns:xlink="http://www.w3.org/1999/xlink" viewBox="222.94 141.44 254.62 293.5">  <path transform="matrix(5.6 0 0 5.6 70 3.979e-14)" d="m42.16 66-12.16 3.9997 3.2303-12.33 30.15-31.89c0.3397-0.3397 0.89007-0.3397 1.2298 0l7.62 7.2203c0.1695 0.15625 0.27065 0.37388 0.27972 0.60477 0.009765 0.23019-0.073243 0.4555-0.22949 0.625zm0 0" fill="none" stroke="#000" stroke-linecap="round" stroke-linejoin="round" stroke-width="3"></path>  <path transform="matrix(5.6 0 0 5.6 70 3.979e-14)" d="m58.58 30.85 8.9 8.4096" fill="none" stroke="#000" stroke-linecap="round" stroke-linejoin="round" stroke-width="3"></path>  <path transform="matrix(5.6 0 0 5.6 70 3.979e-14)" d="m31.2 65.5 3.2401 3.0601" fill="none" stroke="#000" stroke-linecap="round" stroke-linejoin="round" stroke-width="3"></path>  <path transform="matrix(5.6 0 0 5.6 70 3.979e-14)" d="m27.49 77.49h36.99" fill="none" stroke="#000" stroke-linejoin="round" stroke-width="2"></path>  <g>   <use x="70" y="644" xlink:href="#u"></use>   <use x="90.550781" y="644" xlink:href="#c"></use>   <use x="104.359375" y="644" xlink:href="#a"></use>   <use x="123.347656" y="644" xlink:href="#j"></use>   <use x="142.242188" y="644" xlink:href="#b"></use>   <use x="155.628906" y="644" xlink:href="#a"></use>   <use x="174.617188" y="644" xlink:href="#i"></use>   <use x="204.410156" y="644" xlink:href="#h"></use>   <use x="224.453125" y="644" xlink:href="#g"></use>   <use x="252.453125" y="644" xlink:href="#e"></use>   <use x="269.117188" y="644" xlink:href="#f"></use>   <use x="289.050781" y="644" xlink:href="#t"></use>   <use x="314.917969" y="644" xlink:href="#a"></use>   <use x="333.90625" y="644" xlink:href="#s"></use>   <use x="353.953125" y="644" xlink:href="#a"></use>   <use x="372.941406" y="644" xlink:href="#e"></use>   <use x="70" y="672" xlink:href="#r"></use>   <use x="82.183594" y="672" xlink:href="#c"></use>   <use x="95.992188" y="672" xlink:href="#d"></use>   <use x="115.226562" y="672" xlink:href="#q"></use>   <use x="154.152344" y="672" xlink:href="#b"></use>   <use x="167.535156" y="672" xlink:href="#f"></use>   <use x="187.46875" y="672" xlink:href="#a"></use>   <use x="216.207031" y="672" xlink:href="#p"></use>   <use x="239.640625" y="672" xlink:href="#d"></use>   <use x="258.878906" y="672" xlink:href="#o"></use>   <use x="278.8125" y="672" xlink:href="#n"></use>   <use x="308.492188" y="672" xlink:href="#m"></use>   <use x="329.015625" y="672" xlink:href="#c"></use>   <use x="342.820312" y="672" xlink:href="#d"></use>   <use x="362.058594" y="672" xlink:href="#l"></use>   <use x="371.65625" y="672" xlink:href="#a"></use>   <use x="390.648438" y="672" xlink:href="#k"></use>   <use x="407.242188" y="672" xlink:href="#b"></use>  </g> </svg>