<svg version="1.1" xmlns="http://www.w3.org/2000/svg" xmlns:xlink="http://www.w3.org/1999/xlink" viewBox="172.54 36.46 355.07 487.07">  <g>   <path d="m520.62 336.66c-13.945-5.9609-27.836-11.922-41.781-17.883-8.4766-3.6094-16.898-7.3828-25.812-9.8984-16.953-4.7031-34.672-5.7969-52.062-3.4453-17.555 2.3516-34.508 8.0938-49.711 17.227-6.9453 4.1562-13.344 9.0234-20.617 12.688-1.6953 0.875-3.4453 1.6953-5.1953 2.5156-0.92969 0.4375-3.9375 1.2578-0.38281 0.16406-0.98438 0.27344-1.9141 0.76562-2.8438 1.1484-3.8281 1.4766-7.7656 2.6797-11.703 3.7188s-7.9297 1.8594-11.977 2.4609c-0.4375 0.054688-0.875 0.10938-1.3125 0.21875-0.10937 0 3.0078-0.38281 1.4766-0.21875-1.0391 0.10938-2.0234 0.21875-3.0625 0.32813-2.0234 0.21875-4.0469 0.32812-6.0703 0.4375-4.0469 0.16406-8.1484 0.16406-12.25-0.10938-2.0234-0.10937-4.1016-0.32812-6.125-0.54687-0.4375-0.054688-0.875-0.10938-1.3125-0.16406-1.5312-0.16406 1.5312 0.21875 1.4766 0.21875-0.875-0.4375-2.4609-0.38281-3.4453-0.54688-7.9844-1.4219-15.859-3.6641-23.406-6.6719-3.1719-1.2578 1.8047 0.82031-0.4375-0.21875-0.98437-0.4375-1.9141-0.875-2.8438-1.3125-0.21875-0.10938-0.4375-0.21875-0.71094-0.32812-0.76562-0.38281-1.5312-0.76562-2.2969-1.0938-14.602-7-29.203-14-43.805-21.055-0.4375-0.21875-0.82031-0.38281-1.2578-0.60156 2.2422 3.9375 4.5391 7.875 6.7812 11.812v-25.648-61.031-74.375-64.039c0-10.336 0.32812-20.781 0-31.117v-0.4375c-6.8359 3.9375-13.727 7.875-20.562 11.812l41.016 19.688c8.8047 4.2109 17.609 8.3672 26.961 11.156 16.188 4.8672 33.688 6.5625 50.477 4.6484 18.102-2.0781 35.438-7.3281 51.352-16.406 7.0547-3.9922 13.453-8.9688 20.562-12.797 1.6953-0.92969 3.3906-1.8047 5.1406-2.625 0.92969-0.4375 1.8594-0.875 2.8438-1.3125 0.38281-0.16406 0.82031-0.32812 1.2031-0.54688 1.6406-0.76562-2.5156 0.98438-0.82031 0.38281 3.8828-1.4219 7.7109-2.8984 11.648-3.9922 3.9375-1.1484 7.9297-2.0234 11.977-2.7344 0.875-0.16406 1.75-0.27344 2.5703-0.4375 3.4453-0.54688-2.2422 0.21875 0.27344-0.054688 2.0234-0.21875 4.0469-0.4375 6.125-0.54687 4.1016-0.27344 8.1484-0.32813 12.25-0.16406 2.0234 0.054687 4.1016 0.21875 6.125 0.38281 0.875 0.054687 1.75 0.16406 2.625 0.27344 0.82031 0.10938 2.5703 0.4375-1.0391-0.16406 0.60156 0.10938 1.1484 0.16406 1.75 0.27344 8.0391 1.2578 15.969 3.3359 23.625 6.2344 0.92969 0.38281 1.9688 0.875 2.9531 1.1484 0.38281 0.10938-2.1328-0.875-1.5312-0.65625 0.16406 0.054688 0.38281 0.16406 0.54687 0.21875 0.92969 0.38281 1.8594 0.76563 2.7891 1.2031 14.984 6.3984 29.969 12.797 44.898 19.195 0.4375 0.16406 0.82031 0.32812 1.2578 0.54688-2.2422-3.9375-4.5391-7.875-6.7812-11.812v25.648 61.031 74.375 64.039c0 10.391-0.21875 20.781 0 31.117v0.4375c0 7.1641 6.2891 14 13.672 13.672 7.3828-0.32813 13.672-6.0156 13.672-13.672v-25.648-61.031-74.375-64.039c0-10.391 0.21875-20.781 0-31.117v-0.4375c0-4.375-2.5156-9.9531-6.7812-11.812-13.945-5.9609-27.836-11.922-41.781-17.883-8.4766-3.6094-16.898-7.3828-25.812-9.8984-16.953-4.7031-34.672-5.7969-52.062-3.4453-17.555 2.3516-34.508 8.0938-49.711 17.227-6.9453 4.1562-13.344 9.0234-20.617 12.688-1.6953 0.875-3.4453 1.6953-5.1953 2.5156-0.92969 0.4375-3.9375 1.2578-0.38281 0.16406-0.98438 0.27344-1.9141 0.76563-2.8438 1.1484-3.8281 1.4766-7.7656 2.6797-11.703 3.7188s-7.9297 1.8594-11.977 2.4609c-0.4375 0.054687-0.875 0.10937-1.3125 0.21875-0.10938 0 3.0078-0.38281 1.4766-0.21875-1.0391 0.10937-2.0234 0.21875-3.0625 0.32812-2.0234 0.21875-4.0469 0.32813-6.0703 0.4375-4.0469 0.16406-8.1484 0.16406-12.25-0.10937-2.0234-0.10938-4.1016-0.32813-6.125-0.54688-0.4375-0.054687-0.875-0.10937-1.3125-0.16406-1.5312-0.16406 1.5312 0.21875 1.4766 0.21875-0.875-0.4375-2.4609-0.38281-3.4453-0.54688-7.9844-1.4219-15.859-3.6641-23.406-6.6719-3.1719-1.2578 1.8047 0.82031-0.4375-0.21875-0.98438-0.4375-1.9141-0.875-2.8438-1.3125-0.21875-0.10938-0.4375-0.21875-0.71094-0.32812-0.76562-0.38281-1.5312-0.76562-2.2969-1.0938-14.602-7-29.203-14-43.805-21.055-0.4375-0.21875-0.82031-0.38281-1.2578-0.60156-4.4844-2.1875-9.2969-2.625-13.781 0-4.1562 2.4062-6.7812 7-6.7812 11.812v25.648 61.031 74.375 64.039c0 10.391-0.21875 20.781 0 31.117v0.4375c0 4.4844 2.5156 9.7891 6.7812 11.812l41.016 19.688c8.8047 4.2109 17.609 8.3672 26.961 11.156 16.188 4.8672 33.688 6.5625 50.477 4.6484 18.102-2.0781 35.438-7.3281 51.352-16.406 7.0547-3.9922 13.453-8.9688 20.562-12.797 1.6953-0.92969 3.3906-1.8047 5.1406-2.625 0.92969-0.4375 1.8594-0.875 2.8438-1.3125 0.38281-0.16406 0.82031-0.32812 1.2031-0.54688 1.6406-0.76562-2.5156 0.98438-0.82031 0.38281 3.8828-1.4219 7.7109-2.8984 11.648-3.9922 3.9375-1.1484 7.9297-2.0234 11.977-2.7344 0.875-0.16406 1.75-0.27344 2.5703-0.4375 3.4453-0.54688-2.2422 0.21875 0.27344-0.054688 2.0234-0.21875 4.0469-0.4375 6.125-0.54687 4.1016-0.27344 8.1484-0.32813 12.25-0.16406 2.0234 0.054687 4.1016 0.21875 6.125 0.38281 0.875 0.054687 1.75 0.16406 2.625 0.27344 0.82031 0.10938 2.5703 0.4375-1.0391-0.16406 0.60156 0.10938 1.1484 0.16406 1.75 0.27344 8.0391 1.2578 15.969 3.3359 23.625 6.2344 0.92969 0.38281 1.9688 0.875 2.9531 1.1484 0.38281 0.10938-2.1328-0.875-1.5312-0.65625 0.16406 0.054688 0.38281 0.16406 0.54688 0.21875 0.92969 0.38281 1.8594 0.76563 2.7891 1.2031 14.984 6.3984 29.969 12.797 44.898 19.195 0.4375 0.16406 0.82031 0.32812 1.2578 0.54688 3.5 1.5312 6.6719 2.4609 10.555 1.3672 3.1719-0.875 6.6172-3.3359 8.1484-6.2891 2.8984-5.7969 1.9141-15.586-5.1406-18.594z"></path>   <path d="m172.59 50.148v12.25 33.523 49.383 60.484 66.008 66.609 62.398 52.5 37.898c0 5.9609-0.10938 11.922 0 17.883v0.76562c0 7.1641 6.2891 14 13.672 13.672 7.3828-0.32813 13.672-6.0156 13.672-13.672v-12.25-33.523-49.383-60.484-66.008-66.609-62.398-52.5-37.898c0-5.9609 0.10938-11.922 0-17.883v-0.76562c0-7.1641-6.2891-14-13.672-13.672-7.3828 0.32813-13.672 5.9609-13.672 13.672z"></path>   <use x="70" y="568.203125" xlink:href="#v"></use>   <use x="72.007812" y="568.203125" xlink:href="#f"></use>   <use x="73.355469" y="568.203125" xlink:href="#a"></use>   <use x="75.210937" y="568.203125" xlink:href="#e"></use>   <use x="77.054688" y="568.203125" xlink:href="#d"></use>   <use x="78.363281" y="568.203125" xlink:href="#a"></use>   <use x="80.214844" y="568.203125" xlink:href="#k"></use>   <use x="83.125" y="568.203125" xlink:href="#j"></use>   <use x="85.082031" y="568.203125" xlink:href="#i"></use>   <use x="87.816406" y="568.203125" xlink:href="#c"></use>   <use x="89.445312" y="568.203125" xlink:href="#b"></use>   <use x="91.390625" y="568.203125" xlink:href="#e"></use>   <use x="93.238281" y="568.203125" xlink:href="#c"></use>   <use x="94.863281" y="568.203125" xlink:href="#b"></use>   <use x="96.8125" y="568.203125" xlink:href="#e"></use>   <use x="98.65625" y="568.203125" xlink:href="#h"></use>   <use x="100.601562" y="568.203125" xlink:href="#u"></use>   <use x="103.375" y="568.203125" xlink:href="#c"></use>   <use x="105" y="568.203125" xlink:href="#t"></use>   <use x="105.9375" y="568.203125" xlink:href="#h"></use>   <use x="107.882812" y="568.203125" xlink:href="#s"></use>   <use x="109.84375" y="568.203125" xlink:href="#b"></use>   <use x="70" y="570.9375" xlink:href="#r"></use>   <use x="71.191406" y="570.9375" xlink:href="#f"></use>   <use x="72.539062" y="570.9375" xlink:href="#g"></use>   <use x="74.417969" y="570.9375" xlink:href="#q"></use>   <use x="78.21875" y="570.9375" xlink:href="#d"></use>   <use x="79.523438" y="570.9375" xlink:href="#b"></use>   <use x="81.472656" y="570.9375" xlink:href="#a"></use>   <use x="84.277344" y="570.9375" xlink:href="#p"></use>   <use x="86.566406" y="570.9375" xlink:href="#g"></use>   <use x="88.445312" y="570.9375" xlink:href="#o"></use>   <use x="90.390625" y="570.9375" xlink:href="#h"></use>   <use x="93.289062" y="570.9375" xlink:href="#n"></use>   <use x="95.292969" y="570.9375" xlink:href="#f"></use>   <use x="96.644531" y="570.9375" xlink:href="#g"></use>   <use x="98.519531" y="570.9375" xlink:href="#m"></use>   <use x="99.457031" y="570.9375" xlink:href="#a"></use>   <use x="101.3125" y="570.9375" xlink:href="#l"></use>   <use x="102.933594" y="570.9375" xlink:href="#d"></use>  </g> </svg>