<svg version="1.1" xmlns="http://www.w3.org/2000/svg" xmlns:xlink="http://www.w3.org/1999/xlink" viewBox="173.83 33.62 352.25 492.6">  <g>   <path d="m525.93 92.148v-0.4375c0-2.625-1.4766-6.0156-4.0469-7.1094-13.945-5.9609-27.836-11.922-41.781-17.883-8.0391-3.4453-16.023-7-24.5-9.2969-16.188-4.4844-33.25-5.5781-49.875-3.3359-16.844 2.2422-33.141 7.8203-47.688 16.57-6.9453 4.1562-13.344 9.0234-20.617 12.688-7 3.5547-13.344 5.9609-21.492 8.0938-3.9375 1.0391-7.9297 1.8594-11.977 2.4609-0.32812 0.054687-0.60156 0.10937-0.92969 0.16406h-0.054688-0.054688-0.10937-0.054688-0.054688c-1.0391 0.10938-2.0234 0.21875-3.0078 0.32812-2.0234 0.16406-4.0469 0.32812-6.0703 0.4375-4.1016 0.16406-8.1484 0.16406-12.25-0.10938-2.0234-0.10938-4.1016-0.32812-6.125-0.54688-0.21875 0-1.3125-0.16406-1.5859-0.21875-1.0938-0.16406-2.1328-0.32812-3.1719-0.49219-7.9844-1.4219-15.859-3.6641-23.406-6.6719-1.3125-0.54687-3.2812-1.4219-5.3047-2.4062-0.76563-0.38281-1.5312-0.76562-2.2969-1.0938l-32.812-15.75c0-5.5781 0.054688-11.156 0-16.734v-0.76563c0-8.5859-7.5469-16.789-16.406-16.406-8.9141 0.38281-16.406 7.2188-16.406 16.406v441.11c0 5.9609-0.054687 11.922 0 17.883v0.76562c0 8.5859 7.5469 16.789 16.406 16.406 8.9141-0.38281 16.406-7.2188 16.406-16.406v-167.34c6.8359 3.2812 13.617 6.5625 20.453 9.8438 8.3672 4.0469 16.734 7.9297 25.703 10.609 15.75 4.7031 32.703 6.2891 49.055 4.4297 17.117-1.9688 33.578-7.1094 48.562-15.641 7.0547-3.9922 13.453-8.9688 20.562-12.797 7.3281-3.9375 13.18-6.3438 21.328-8.6406 8.0391-2.2969 14.82-3.4453 22.367-3.9922 4.1016-0.27344 8.1484-0.32812 12.25-0.16406 2.0234 0.054688 4.1016 0.21875 6.125 0.38281 0.875 0.054687 1.75 0.16406 2.625 0.27344 0.054688 0 0.49219 0.054688 0.76563 0.054688h0.054687 0.054687 0.054688c0.4375 0.054688 0.875 0.10938 1.3125 0.21875 8.0391 1.2578 15.969 3.3359 23.57 6.2344 2.1328 0.82031 3.4453 1.3672 6.0156 2.4609 14.984 6.3984 29.969 12.797 44.898 19.195 0.4375 0.16406 0.82031 0.32812 1.2031 0.54688 2.2422 0.98438 4.7031 1.2578 6.8359 0.60156h0.054687c1.6953-0.54687 3.2266-1.6406 4.3203-3.5 0.16406-0.27344 0.27344-0.54687 0.4375-0.875 0 0 0-0.054687 0.054687-0.10937 0.4375-0.98438 0.65625-2.0234 0.65625-3.1719v-225.09c-0.054687-10.391 0.27344-20.781-0.054687-31.172z"></path>   <use x="70" y="568.203125" xlink:href="#v"></use>   <use x="72.007812" y="568.203125" xlink:href="#f"></use>   <use x="73.355469" y="568.203125" xlink:href="#a"></use>   <use x="75.210937" y="568.203125" xlink:href="#e"></use>   <use x="77.054688" y="568.203125" xlink:href="#d"></use>   <use x="78.363281" y="568.203125" xlink:href="#a"></use>   <use x="80.214844" y="568.203125" xlink:href="#k"></use>   <use x="83.125" y="568.203125" xlink:href="#j"></use>   <use x="85.082031" y="568.203125" xlink:href="#i"></use>   <use x="87.816406" y="568.203125" xlink:href="#c"></use>   <use x="89.445312" y="568.203125" xlink:href="#b"></use>   <use x="91.390625" y="568.203125" xlink:href="#e"></use>   <use x="93.238281" y="568.203125" xlink:href="#c"></use>   <use x="94.863281" y="568.203125" xlink:href="#b"></use>   <use x="96.8125" y="568.203125" xlink:href="#e"></use>   <use x="98.65625" y="568.203125" xlink:href="#h"></use>   <use x="100.601562" y="568.203125" xlink:href="#u"></use>   <use x="103.375" y="568.203125" xlink:href="#c"></use>   <use x="105" y="568.203125" xlink:href="#t"></use>   <use x="105.9375" y="568.203125" xlink:href="#h"></use>   <use x="107.882812" y="568.203125" xlink:href="#s"></use>   <use x="109.84375" y="568.203125" xlink:href="#b"></use>   <use x="70" y="570.9375" xlink:href="#r"></use>   <use x="71.191406" y="570.9375" xlink:href="#f"></use>   <use x="72.539062" y="570.9375" xlink:href="#g"></use>   <use x="74.417969" y="570.9375" xlink:href="#q"></use>   <use x="78.21875" y="570.9375" xlink:href="#d"></use>   <use x="79.523438" y="570.9375" xlink:href="#b"></use>   <use x="81.472656" y="570.9375" xlink:href="#a"></use>   <use x="84.277344" y="570.9375" xlink:href="#p"></use>   <use x="86.566406" y="570.9375" xlink:href="#g"></use>   <use x="88.445312" y="570.9375" xlink:href="#o"></use>   <use x="90.390625" y="570.9375" xlink:href="#h"></use>   <use x="93.289062" y="570.9375" xlink:href="#n"></use>   <use x="95.292969" y="570.9375" xlink:href="#f"></use>   <use x="96.644531" y="570.9375" xlink:href="#g"></use>   <use x="98.519531" y="570.9375" xlink:href="#m"></use>   <use x="99.457031" y="570.9375" xlink:href="#a"></use>   <use x="101.3125" y="570.9375" xlink:href="#l"></use>   <use x="102.933594" y="570.9375" xlink:href="#d"></use>  </g> </svg>