<?xml version="1.0" encoding="UTF-8"?>
<svg width="700pt" height="700pt" version="1.1" viewBox="0 0 500 700" xmlns="http://www.w3.org/2000/svg">
 <g>
  <path d="m462.71 68.004c-14.211 24.613-1.7891 45.168 11.285 66.805 9.0078 14.906 18.328 30.324 19.465 47.934 15.82-7.8203 33.828-7.4609 51.238-7.1094 25.277 0.50391 49.293 0.98438 63.504-23.629 29.996-51.957-21.965-81.957-60.754-62.773-2.7773-43.191-54.738-73.188-84.738-21.227z"/>
  <path d="m197.62 145.74c14.164 14.152 33.906 32.203 56.676 48.469 2.293 1.6367 4.5078 3.1484 6.668 4.5625 5.5195-26.102 12.629-49.418 23.652-67.875 1.4219-2.3828 2.918-4.7031 4.5-6.957-27.957-38.844-44.195-73.984-44.195-73.984-22.035 19.359-43.168 53.641-47.301 95.785z"/>
  <path d="m448.03 307.99c0 84-63 140-133 140-49 0-77.004-14-77.004-14l-84 42s-32.668-14-56-49c-23.328-35-14-63-14-63 48.141 0 85.484-4.1133 114.13-13.188-5.1992-4.3594-10.59-9.2734-16.129-14.812-69.996-70-55.996-154-27.996-196 0 0 35 42 83.996 77 14.863 10.613 27.145 16.723 38.609 22.422 1.6758 0.83203 3.332 1.6562 4.9727 2.4805 13.543-84.523 28.793-129.9 89.422-129.9 33.07 0 55.207 25 69.355 60.234l35.645 23.766-42 14v-1.8477c-0.125 0.73828-0.13672 1.3633 0 1.8477 2.0938 12.57 4.1914 23.18 6.0977 32.844 4.4648 22.617 7.9023 40.027 7.9023 65.156zm-77.004-112c11.598 0 21-9.4023 21-21 0-11.598-9.4023-21-21-21-11.598 0-21 9.4023-21 21 0 11.598 9.4023 21 21 21z" fill-rule="evenodd"/>
  <path d="m493.7 295.74c-15.195-14.598-29.629-28.461-23.496-51.34 12.941-48.297 61.234-35.359 72.785-1.1914 27.086-23.809 75.383-10.867 62.441 37.426-6.1289 22.879-25.562 27.672-46.02 32.715-14.086 3.4727-28.664 7.0703-39.711 16.777-4.7109-13.934-15.535-24.332-26-34.387z"/>
 </g>
</svg>
