
<?xml version="1.0" encoding="UTF-8"?>
<svg width="700pt" height="700pt" version="1.1" viewBox="150 80 400 400" xmlns="http://www.w3.org/2000/svg" xmlns:xlink="http://www.w3.org/1999/xlink">
 <g>
  <path d="m365.31 200.16h-30.625v64.531h-64.531v30.625h64.531v64.531h30.625v-64.531h64.531v-30.625h-64.531z"/>
  <path d="m350 89.688c-104.89 0-190.31 85.422-190.31 190.31s85.422 190.31 190.31 190.31 190.31-85.422 190.31-190.31-85.422-190.31-190.31-190.31zm0 350c-88.047 0-159.69-71.641-159.69-159.69s71.641-159.69 159.69-159.69 159.69 71.641 159.69 159.69-71.641 159.69-159.69 159.69z"/>
  <use x="70" y="576.40625" xlink:href="#t"/>
  <use x="74.011719" y="576.40625" xlink:href="#c"/>
  <use x="76.710938" y="576.40625" xlink:href="#a"/>
  <use x="80.417969" y="576.40625" xlink:href="#e"/>
  <use x="84.109375" y="576.40625" xlink:href="#b"/>
  <use x="86.722656" y="576.40625" xlink:href="#a"/>
  <use x="90.433594" y="576.40625" xlink:href="#i"/>
  <use x="96.25" y="576.40625" xlink:href="#h"/>
  <use x="100.167969" y="576.40625" xlink:href="#g"/>
  <use x="105.636719" y="576.40625" xlink:href="#f"/>
  <use x="110.175781" y="576.40625" xlink:href="#a"/>
  <use x="113.882812" y="576.40625" xlink:href="#s"/>
  <use x="115.757812" y="576.40625" xlink:href="#b"/>
  <use x="118.371094" y="576.40625" xlink:href="#e"/>
  <use x="70" y="581.875" xlink:href="#r"/>
  <use x="72.378906" y="581.875" xlink:href="#c"/>
  <use x="75.078125" y="581.875" xlink:href="#d"/>
  <use x="78.832031" y="581.875" xlink:href="#q"/>
  <use x="86.4375" y="581.875" xlink:href="#b"/>
  <use x="89.050781" y="581.875" xlink:href="#p"/>
  <use x="92.941406" y="581.875" xlink:href="#a"/>
  <use x="98.554688" y="581.875" xlink:href="#o"/>
  <use x="103.132812" y="581.875" xlink:href="#d"/>
  <use x="106.890625" y="581.875" xlink:href="#n"/>
  <use x="110.785156" y="581.875" xlink:href="#m"/>
  <use x="116.582031" y="581.875" xlink:href="#l"/>
  <use x="120.589844" y="581.875" xlink:href="#c"/>
  <use x="123.285156" y="581.875" xlink:href="#d"/>
  <use x="127.042969" y="581.875" xlink:href="#k"/>
  <use x="128.917969" y="581.875" xlink:href="#a"/>
  <use x="132.625" y="581.875" xlink:href="#j"/>
  <use x="135.867188" y="581.875" xlink:href="#b"/>
 </g>
</svg>
