<svg version="1.1" xmlns="http://www.w3.org/2000/svg" xmlns:xlink="http://www.w3.org/1999/xlink" viewBox="122.53 116.56 454.96 326.87"><g>   <path d="m568.75 271.25h-416.37l139.65-139.74c3.418-3.418 3.418-8.9609 0-12.379-3.418-3.4219-8.9609-3.4219-12.383 0l-154.57 154.7c-3.3945 3.4102-3.3945 8.9258 0 12.336l154.57 154.7h-0.003906c3.4219 3.4219 8.9648 3.4219 12.383 0 3.418-3.418 3.418-8.9609 0-12.379l-139.65-139.74h416.37c4.832 0 8.75-3.918 8.75-8.75s-3.918-8.75-8.75-8.75z"></path>   <use x="70" y="625.625" xlink:href="#u"></use>   <use x="86.054688" y="625.625" xlink:href="#b"></use>   <use x="96.839844" y="625.625" xlink:href="#a"></use>   <use x="111.679687" y="625.625" xlink:href="#f"></use>   <use x="126.4375" y="625.625" xlink:href="#c"></use>   <use x="136.894531" y="625.625" xlink:href="#a"></use>   <use x="151.730469" y="625.625" xlink:href="#e"></use>   <use x="175.007812" y="625.625" xlink:href="#j"></use>   <use x="190.664062" y="625.625" xlink:href="#i"></use>   <use x="212.539062" y="625.625" xlink:href="#h"></use>   <use x="230.847656" y="625.625" xlink:href="#t"></use>   <use x="238.34375" y="625.625" xlink:href="#e"></use>   <use x="254.003906" y="625.625" xlink:href="#a"></use>   <use x="268.839844" y="625.625" xlink:href="#s"></use>   <use x="290.609375" y="625.625" xlink:href="#f"></use>   <use x="305.371094" y="625.625" xlink:href="#b"></use>   <use x="316.15625" y="625.625" xlink:href="#g"></use>   <use x="70" y="647.5" xlink:href="#r"></use>   <use x="79.515625" y="647.5" xlink:href="#b"></use>   <use x="90.304688" y="647.5" xlink:href="#d"></use>   <use x="105.332031" y="647.5" xlink:href="#q"></use>   <use x="135.742188" y="647.5" xlink:href="#c"></use>   <use x="146.199219" y="647.5" xlink:href="#p"></use>   <use x="161.773438" y="647.5" xlink:href="#a"></use>   <use x="184.222656" y="647.5" xlink:href="#o"></use>   <use x="202.53125" y="647.5" xlink:href="#d"></use>   <use x="217.558594" y="647.5" xlink:href="#g"></use>   <use x="233.132812" y="647.5" xlink:href="#n"></use>   <use x="256.320312" y="647.5" xlink:href="#m"></use>   <use x="272.355469" y="647.5" xlink:href="#b"></use>   <use x="283.140625" y="647.5" xlink:href="#d"></use>   <use x="298.171875" y="647.5" xlink:href="#l"></use>   <use x="305.667969" y="647.5" xlink:href="#a"></use>   <use x="320.503906" y="647.5" xlink:href="#k"></use>   <use x="333.472656" y="647.5" xlink:href="#c"></use>  </g> </svg>