<svg version="1.1" xmlns="http://www.w3.org/2000/svg" xmlns:xlink="http://www.w3.org/1999/xlink" viewBox="75.2 17.13 553.46 534.19">  <g>   <path transform="matrix(.54688 0 0 .54688 71.289 1.6138)" d="m514.96 64.942 140.8 288.4 326.85 51.271-233.83 243.54 51.179 320.44-285-150.61-291.8 150.61 57.686-320.44-237.13-243.54 330.06-51.271z" stroke="#000" stroke-miterlimit="10" stroke-width="40"></path>   <use x="70" y="568.203125" xlink:href="#v"></use>   <use x="72.007812" y="568.203125" xlink:href="#f"></use>   <use x="73.355469" y="568.203125" xlink:href="#a"></use>   <use x="75.210937" y="568.203125" xlink:href="#e"></use>   <use x="77.054688" y="568.203125" xlink:href="#d"></use>   <use x="78.363281" y="568.203125" xlink:href="#a"></use>   <use x="80.214844" y="568.203125" xlink:href="#k"></use>   <use x="83.125" y="568.203125" xlink:href="#j"></use>   <use x="85.082031" y="568.203125" xlink:href="#i"></use>   <use x="87.816406" y="568.203125" xlink:href="#c"></use>   <use x="89.445312" y="568.203125" xlink:href="#b"></use>   <use x="91.390625" y="568.203125" xlink:href="#e"></use>   <use x="93.238281" y="568.203125" xlink:href="#c"></use>   <use x="94.863281" y="568.203125" xlink:href="#b"></use>   <use x="96.8125" y="568.203125" xlink:href="#e"></use>   <use x="98.65625" y="568.203125" xlink:href="#h"></use>   <use x="100.601562" y="568.203125" xlink:href="#u"></use>   <use x="103.375" y="568.203125" xlink:href="#c"></use>   <use x="105" y="568.203125" xlink:href="#t"></use>   <use x="105.9375" y="568.203125" xlink:href="#h"></use>   <use x="107.882812" y="568.203125" xlink:href="#s"></use>   <use x="109.84375" y="568.203125" xlink:href="#b"></use>   <use x="70" y="570.9375" xlink:href="#r"></use>   <use x="71.191406" y="570.9375" xlink:href="#f"></use>   <use x="72.539062" y="570.9375" xlink:href="#g"></use>   <use x="74.417969" y="570.9375" xlink:href="#q"></use>   <use x="78.21875" y="570.9375" xlink:href="#d"></use>   <use x="79.523438" y="570.9375" xlink:href="#b"></use>   <use x="81.472656" y="570.9375" xlink:href="#a"></use>   <use x="84.277344" y="570.9375" xlink:href="#p"></use>   <use x="86.566406" y="570.9375" xlink:href="#g"></use>   <use x="88.445312" y="570.9375" xlink:href="#o"></use>   <use x="90.390625" y="570.9375" xlink:href="#h"></use>   <use x="93.289062" y="570.9375" xlink:href="#n"></use>   <use x="95.292969" y="570.9375" xlink:href="#f"></use>   <use x="96.644531" y="570.9375" xlink:href="#g"></use>   <use x="98.519531" y="570.9375" xlink:href="#m"></use>   <use x="99.457031" y="570.9375" xlink:href="#a"></use>   <use x="101.3125" y="570.9375" xlink:href="#l"></use>   <use x="102.933594" y="570.9375" xlink:href="#d"></use>  </g> </svg>