<svg version="1.1" xmlns="http://www.w3.org/2000/svg" xmlns:xlink="http://www.w3.org/1999/xlink" viewBox="107.92 49.41 483.75 461.46">  <g>   <path d="m338.19 69.891c8.0391 16.242 16.078 32.539 24.062 48.781 12.633 25.594 25.266 51.242 37.898 76.836 2.7891 5.6875 5.3594 11.539 8.4219 17.062 4.1016 7.4375 12.961 7.1641 20.234 8.2031 26.961 3.9375 53.867 7.8203 80.828 11.758 21.273 3.1172 42.492 6.5078 63.82 9.2969 0.32812 0.054687 0.71094 0.10938 1.0391 0.16406-2.0234-7.6016-4.0469-15.258-6.0156-22.859-13.016 12.688-25.977 25.32-38.992 38.008-20.562 20.016-41.07 40.031-61.633 60.047-4.4844 4.3203-9.0781 8.5859-13.398 13.07-3.7734 3.9375-4.4297 8.4219-3.6094 13.617l0.32812 1.9688c0.54688 3.2266 1.0938 6.3984 1.6406 9.625 4.5938 26.906 9.2422 53.758 13.836 80.664 3.6094 21.164 7 42.438 10.883 63.547 0.054688 0.32812 0.10938 0.71094 0.16406 1.0391 6.6719-5.1406 13.398-10.281 20.07-15.422-16.078-8.4219-32.102-16.898-48.18-25.32-25.375-13.344-50.805-26.688-76.18-40.031-5.5234-2.8984-10.992-5.9062-16.57-8.6953-4.8125-2.4062-9.2969-2.4062-14.109 0-0.60156 0.27344-1.2031 0.60156-1.8047 0.92969-2.8984 1.5312-5.7422 3.0078-8.6406 4.5391-24.172 12.688-48.289 25.375-72.461 38.062-19.031 10.008-38.172 19.742-57.094 30.023-0.32812 0.16406-0.60156 0.32812-0.92969 0.49219 6.6719 5.1406 13.398 10.281 20.07 15.422 3.0625-17.883 6.125-35.766 9.1875-53.648 4.8672-28.273 9.6797-56.547 14.547-84.82 1.0391-6.125 2.1328-12.305 3.1719-18.43 0.875-5.25 0.16406-9.625-3.6094-13.617-0.4375-0.49219-0.98437-0.92969-1.4219-1.4219-2.3516-2.2422-4.6484-4.5391-7-6.7812-19.523-19.031-39.047-38.062-58.625-57.148-15.367-14.984-30.57-30.242-46.156-45.008-0.27344-0.21875-0.49219-0.49219-0.76563-0.76562-2.0234 7.6016-4.0469 15.258-6.0156 22.859 17.938-2.625 35.93-5.1953 53.867-7.8203 28.273-4.1016 56.547-8.2031 84.82-12.305 6.2344-0.92969 12.633-1.4766 18.867-2.7344 7.7656-1.5859 10.664-10.938 13.727-17.172 12.031-24.391 24.117-48.836 36.148-73.227 9.5156-19.25 19.086-38.5 28.547-57.805 0.16406-0.32812 0.32812-0.65625 0.49219-0.92969 3.1719-6.3984 1.9141-15.094-4.9219-18.703-6.1797-3.2812-15.312-1.9688-18.703 4.9219-7.9297 16.133-15.914 32.211-23.844 48.344-12.688 25.648-25.32 51.297-38.008 77-2.8984 5.8516-5.7969 11.703-8.6953 17.609 2.7344-2.0781 5.4688-4.2109 8.1484-6.2891-17.773 2.5703-35.547 5.1406-53.32 7.7656-28.328 4.1016-56.656 8.2031-84.93 12.359-6.4531 0.92969-12.961 1.8594-19.414 2.8438-4.5391 0.65625-8.4219 5.4141-9.5703 9.5703-1.2578 4.6484 0.054687 9.8984 3.5 13.289 12.852 12.523 25.758 25.102 38.609 37.625 20.508 19.961 40.961 39.922 61.469 59.938 4.7031 4.5391 9.3516 9.1328 14.055 13.672-1.1484-4.4297-2.3516-8.8594-3.5-13.289-3.0625 17.719-6.0703 35.438-9.1328 53.102-4.8125 28.219-9.6797 56.383-14.492 84.602-1.0938 6.4531-2.1875 12.906-3.3359 19.305-0.92969 5.5781 0.21875 10.773 4.9219 14.383 4.4297 3.4453 10.227 3.6641 15.203 1.0938 15.914-8.3672 31.828-16.734 47.688-25.102 25.32-13.289 50.641-26.633 75.961-39.922 5.7969-3.0625 11.594-6.0703 17.336-9.1328h-13.781c15.914 8.3672 31.828 16.734 47.688 25.102 25.32 13.289 50.641 26.633 75.961 39.922 5.7969 3.0625 11.594 6.0703 17.336 9.1328 4.9219 2.625 10.719 2.4062 15.203-1.0938 4.5938-3.5547 5.8516-8.8047 4.9219-14.383-3.0625-17.719-6.0703-35.438-9.1328-53.102-4.8125-28.219-9.6797-56.383-14.492-84.602-1.0938-6.4531-2.1875-12.906-3.3359-19.305-1.1484 4.4297-2.3516 8.8594-3.5 13.289 12.852-12.523 25.758-25.102 38.609-37.625 20.508-19.961 40.961-39.922 61.469-59.938 4.7031-4.5391 9.3516-9.1328 14.055-13.672 3.5-3.3906 4.8125-8.6406 3.5-13.289-1.1484-4.1562-5.0312-8.9141-9.5703-9.5703-17.773-2.5703-35.547-5.1406-53.32-7.7656-28.328-4.1016-56.656-8.2031-84.93-12.359-6.4531-0.92969-12.961-1.8594-19.414-2.8438 2.7344 2.0781 5.4688 4.2109 8.1484 6.2891-7.9297-16.133-15.914-32.211-23.844-48.344-12.688-25.648-25.32-51.297-38.008-77-2.8984-5.8516-5.7969-11.703-8.6953-17.609-3.1719-6.4531-12.797-8.6953-18.703-4.9219-6.3438 4.2109-8.0391 11.758-4.6484 18.648z"></path>   <use x="70" y="568.203125" xlink:href="#v"></use>   <use x="72.007812" y="568.203125" xlink:href="#f"></use>   <use x="73.355469" y="568.203125" xlink:href="#a"></use>   <use x="75.210937" y="568.203125" xlink:href="#e"></use>   <use x="77.054688" y="568.203125" xlink:href="#d"></use>   <use x="78.363281" y="568.203125" xlink:href="#a"></use>   <use x="80.214844" y="568.203125" xlink:href="#k"></use>   <use x="83.125" y="568.203125" xlink:href="#j"></use>   <use x="85.082031" y="568.203125" xlink:href="#i"></use>   <use x="87.816406" y="568.203125" xlink:href="#c"></use>   <use x="89.445312" y="568.203125" xlink:href="#b"></use>   <use x="91.390625" y="568.203125" xlink:href="#e"></use>   <use x="93.238281" y="568.203125" xlink:href="#c"></use>   <use x="94.863281" y="568.203125" xlink:href="#b"></use>   <use x="96.8125" y="568.203125" xlink:href="#e"></use>   <use x="98.65625" y="568.203125" xlink:href="#h"></use>   <use x="100.601562" y="568.203125" xlink:href="#u"></use>   <use x="103.375" y="568.203125" xlink:href="#c"></use>   <use x="105" y="568.203125" xlink:href="#t"></use>   <use x="105.9375" y="568.203125" xlink:href="#h"></use>   <use x="107.882812" y="568.203125" xlink:href="#s"></use>   <use x="109.84375" y="568.203125" xlink:href="#b"></use>   <use x="70" y="570.9375" xlink:href="#r"></use>   <use x="71.191406" y="570.9375" xlink:href="#f"></use>   <use x="72.539062" y="570.9375" xlink:href="#g"></use>   <use x="74.417969" y="570.9375" xlink:href="#q"></use>   <use x="78.21875" y="570.9375" xlink:href="#d"></use>   <use x="79.523438" y="570.9375" xlink:href="#b"></use>   <use x="81.472656" y="570.9375" xlink:href="#a"></use>   <use x="84.277344" y="570.9375" xlink:href="#p"></use>   <use x="86.566406" y="570.9375" xlink:href="#g"></use>   <use x="88.445312" y="570.9375" xlink:href="#o"></use>   <use x="90.390625" y="570.9375" xlink:href="#h"></use>   <use x="93.289062" y="570.9375" xlink:href="#n"></use>   <use x="95.292969" y="570.9375" xlink:href="#f"></use>   <use x="96.644531" y="570.9375" xlink:href="#g"></use>   <use x="98.519531" y="570.9375" xlink:href="#m"></use>   <use x="99.457031" y="570.9375" xlink:href="#a"></use>   <use x="101.3125" y="570.9375" xlink:href="#l"></use>   <use x="102.933594" y="570.9375" xlink:href="#d"></use>  </g> </svg>