<svg version="1.1" xmlns="http://www.w3.org/2000/svg" xmlns:xlink="http://www.w3.org/1999/xlink" viewBox="108.39 36.51 483.22 487.06">  <g>   <path d="m539 287.44h-9.6797c-7.1641 0-14 6.2891-13.672 13.672 0.32812 7.4922 6.0156 13.562 13.672 13.672 1.0391 0 2.0234 0.10938 3.0625 0.16406 2.2422 0.10938-1.2578-0.16406-1.4219-0.21875 0.4375 0.16406 0.98437 0.16406 1.4766 0.27344 1.0938 0.21875 2.1328 0.49219 3.1719 0.82031 0.4375 0.16406 0.92969 0.32813 1.3672 0.49219 1.5859 0.4375-3.0078-1.4219-0.92969-0.38281 1.75 0.875 3.3359 1.8047 4.9766 2.8438 1.8047 1.1484-0.92969-0.71094-1.0391-0.875 0.27344 0.32812 0.76562 0.60156 1.0938 0.92969 0.875 0.76562 1.75 1.6406 2.5703 2.5156 0.32812 0.32812 0.60156 0.71094 0.92969 1.0938 1.4219 1.5859-0.76562-0.92969-0.82031-1.0938 0.32813 0.82031 1.1484 1.5859 1.5859 2.3516 0.49219 0.82031 0.92969 1.6406 1.3672 2.5156 0.21875 0.4375 0.38281 0.92969 0.60156 1.3125-1.8047-3.1719-0.71094-1.75-0.32812-0.54688 0.32812 0.92969 0.60156 1.8594 0.82031 2.8438 0.10937 0.49219 0.16406 0.98438 0.32812 1.4219 0.49219 2.1328-0.16406-1.2578-0.16406-1.4219 0 2.0234 0.27344 4.0469 0.16406 6.0703-0.054687 0.49219-0.10937 1.0391-0.16406 1.4766 0-0.16406 0.65625-3.5547 0.16406-1.4219-0.21875 0.92969-0.38281 1.9141-0.65625 2.8438-0.27344 0.875-0.76562 1.8594-0.92969 2.7891 0.38281-2.5156 1.0938-2.4062 0.54688-1.2578-0.32812 0.65625-0.60156 1.3125-0.98438 1.9141-0.4375 0.82031-0.92969 1.6406-1.4766 2.4609-0.21875 0.32813-0.65625 0.82031-0.82031 1.1484 0.054688-0.16406 2.2422-2.625 0.82031-1.0938-1.4219 1.5859-3.2266 2.8984-4.5938 4.4844 0.10938-0.16406 2.8438-1.9688 1.0391-0.875-0.38281 0.27344-0.76562 0.54688-1.2031 0.82031-0.82031 0.49219-1.6406 0.98437-2.4609 1.4219l-1.3125 0.65625c-1.1484 0.60156-1.2578-0.16406 1.2578-0.54687-1.0391 0.16406-2.1328 0.76562-3.1172 1.0391-1.0391 0.27344-2.2422 0.38281-3.2266 0.71094 0.16406-0.054688 3.6094-0.32813 1.4219-0.21875-0.49219 0-0.98438 0.054687-1.5312 0.10937-0.82031 0.054688-1.6406 0.054688-2.4609 0.054688h-15.148c-7.1641 0-14 6.2891-13.672 13.672 0.32812 7.4922 6.0156 13.562 13.672 13.672 1.0391 0 2.0234 0.10938 3.0625 0.16406 2.2422 0.10938-1.2578-0.16406-1.4219-0.21875 0.4375 0.16406 0.98438 0.16406 1.4766 0.27344 1.0938 0.21875 2.1328 0.49219 3.1719 0.82031 0.4375 0.16406 0.92969 0.32813 1.3672 0.49219 1.5859 0.4375-3.0078-1.4219-0.92969-0.38281 1.75 0.875 3.3359 1.8047 4.9766 2.8438 1.8047 1.1484-0.92969-0.71094-1.0391-0.875 0.27344 0.32812 0.76562 0.60156 1.0938 0.92969 0.875 0.76562 1.75 1.6406 2.5703 2.5156 0.32812 0.32812 0.60156 0.71094 0.92969 1.0938 1.4219 1.5859-0.76563-0.92969-0.82031-1.0938 0.32812 0.82031 1.1484 1.5859 1.5859 2.3516 0.49219 0.82031 0.92969 1.6406 1.3672 2.5156 0.21875 0.4375 0.38281 0.92969 0.60156 1.3125-1.8047-3.1719-0.71094-1.75-0.32812-0.54688 0.32812 0.92969 0.60156 1.8594 0.82031 2.8438 0.10938 0.49219 0.16406 0.98438 0.32812 1.4219 0.49219 2.1328-0.16406-1.2578-0.16406-1.4219 0 2.0234 0.27344 4.0469 0.16406 6.0703-0.054687 0.49219-0.10938 1.0391-0.16406 1.4766 0-0.16406 0.65625-3.5547 0.16406-1.4219-0.21875 0.98438-0.38281 1.9141-0.65625 2.8438-0.27344 0.875-0.76562 1.8594-0.92969 2.7891 0.38281-2.5156 1.0938-2.4062 0.54687-1.2578-0.32812 0.65625-0.60156 1.3125-0.98437 1.9141-0.4375 0.82031-0.92969 1.6406-1.4766 2.4609-0.21875 0.32813-0.65625 0.82031-0.82031 1.1484 0.054688-0.16406 2.2422-2.625 0.82031-1.0938-1.4219 1.5859-3.2266 2.8984-4.5938 4.4844 0.10938-0.16406 2.8438-1.9688 1.0391-0.875-0.38281 0.27344-0.76563 0.54688-1.2031 0.82031-0.82031 0.49219-1.6406 0.98437-2.4609 1.4219l-1.3125 0.65625c-1.1484 0.60156-1.2578-0.16406 1.2578-0.54687-1.0391 0.16406-2.1328 0.76562-3.1172 1.0391-1.0391 0.27344-2.2422 0.38281-3.2266 0.71094 0.16406-0.054688 3.6094-0.32813 1.4219-0.21875-0.49219 0-0.98437 0.054687-1.5312 0.10937-0.82031 0.054688-1.6406 0.054688-2.4609 0.054688h-15.148c-7.1641 0-14 6.2891-13.672 13.672 0.32813 7.4922 6.0156 13.562 13.672 13.672 1.2031 0 2.5703 0.27344 3.7734 0.21875-0.21875 0-3.5547-0.65625-1.4219-0.16406 0.60156 0.16406 1.2031 0.21875 1.8047 0.38281 1.0938 0.27344 2.0781 0.65625 3.1719 0.92969 2.0234 0.60156-1.0938-0.49219-1.2578-0.60156 0.60156 0.38281 1.3125 0.60156 1.9688 0.92969 1.0391 0.54688 2.0781 1.1484 3.0625 1.8047 0.38281 0.27344 0.76562 0.60156 1.1484 0.82031-2.7891-1.3672-1.8047-1.5312-0.82031-0.60156 0.76562 0.71094 1.5859 1.4219 2.3516 2.1875 0.32812 0.32812 0.65625 0.71094 0.98437 1.0391 0.32813 0.38281 0.60156 0.71094 0.92969 1.0938-0.4375-0.54687-0.82031-1.0938-1.2578-1.6406 0.4375 1.0391 1.3672 2.0234 1.9688 3.0078 0.54687 0.92969 0.92969 1.9141 1.4766 2.8984 0.875 1.5312-1.2031-3.3906-0.4375-0.92969 0.16406 0.4375 0.32812 0.92969 0.4375 1.3672 0.38281 1.2031 0.60156 2.3516 0.875 3.5547 0.60156 2.625-0.21875-2.8984-0.10938-1.0391 0.054687 0.60156 0.10938 1.2578 0.16406 1.8594 0.054687 1.2578 0.054687 2.5156-0.054688 3.7734 0 0.16406 0 0.27344-0.054688 0.4375-0.16406 1.5312-0.10937 1.1484 0.16406-1.0391-0.16406 0.16406-0.32812 1.6406-0.32812 1.6953-0.32812 1.4219-0.76562 2.7344-1.2031 4.1016-0.875 2.8438 1.4766-2.7344 0.054687-0.16406-0.27344 0.49219-0.49219 0.98438-0.76562 1.4766-0.60156 1.0938-1.3125 2.1328-2.0234 3.1719-0.98438 1.5859 2.2969-2.5156 0.32812-0.49219-0.38281 0.38281-0.71094 0.82031-1.0938 1.2578-0.38281 0.38281-0.76562 0.82031-1.1484 1.1484-0.32813 0.32812-3.0625 2.5703-1.1484 1.0938 1.8594-1.4219-0.38281 0.21875-0.65625 0.38281-0.49219 0.32812-0.92969 0.60156-1.4219 0.875-0.49219 0.27344-0.98438 0.54687-1.4766 0.82031-0.32812 0.16406-2.8438 1.2578-0.65625 0.38281 2.2422-0.92969-0.4375 0.10938-0.76562 0.21875-0.54688 0.16406-1.0938 0.32813-1.6406 0.49219-0.54687 0.16406-1.0938 0.27344-1.6406 0.4375-0.54688 0.10938-1.1484 0.21875-1.6953 0.32812 2.0781-0.27344 2.5156-0.32812 1.4766-0.21875-1.8047 0.054687-3.5547 0.16406-5.3594 0.16406h-51.734-80.719-58.133-4.9766c-1.2031 0-2.4062 0-3.5547-0.054688-2.9531-0.10938-6.2891 0-9.1875-0.71094 3.2266 0.76563 0.98438 0.10938 0.10938 0-0.82031-0.10937-1.6953-0.27344-2.5156-0.4375-1.6953-0.32812-3.3359-0.65625-4.9766-1.0938-6.4531-1.5859-12.578-3.9922-19.086-5.5781-6.125-1.4766-12.305-3.0078-18.43-4.4844-1.3125-0.32812-2.625-0.65625-3.9375-0.92969 3.3359 4.375 6.6719 8.8047 10.062 13.18v-21.602-51.844-62.781-54.305c0-8.8047 0.32812-17.609 0-26.414v-0.38281c-4.5391 4.5391-9.1328 9.1328-13.672 13.672h18.156c4.6484 0 9.3516-0.27344 13.781-1.8047 8.2578-2.7891 14.93-7.875 19.961-14.984 2.0234-2.8984 3.4453-6.2344 5.0312-9.4062 2.7891-5.6328 5.5781-11.266 8.3672-16.898 10.117-20.398 20.234-40.797 30.297-61.195 3.3359-6.7812 6.7266-13.562 10.062-20.344 0.82031-1.5859 1.5859-3.1719 2.4062-4.8125 3.8281-7.9297 6.0156-16.188 6.125-24.992 0.10938-11.867 0-23.734 0-35.547 0-5.5234 0.16406-11.047 0-16.516 0-0.875 0.21875-2.3516-0.21875 0.98438-0.21875 1.4219-0.32812 2.4062-0.16406 1.5312-1.1484 4.7031-1.6406 3.7188-0.98438 2.3516 0.4375-0.82031 0.875-1.6953 1.3672-2.4609 0.27344-0.49219 0.60156-0.98437 0.92969-1.4219 0.21875-0.32813 0.4375-0.60156 0.65625-0.92969 1.5312-2.2422-2.2422 2.6797-0.875 1.1484 1.0938-1.2578 2.1875-2.5156 3.3906-3.6094 0.92969-0.875 3.9375-2.8438-0.10938-0.10937 0.92969-0.65625 1.8594-1.3672 2.8438-1.9688 1.0391-0.65625 2.1875-1.2031 3.2812-1.75 1.8594-0.98438-1.4766 0.60156-1.4766 0.60156 0.54687-0.32812 1.3125-0.49219 1.9141-0.71094 1.2578-0.4375 2.5156-0.82031 3.7734-1.0938 0.60156-0.16406 1.2031-0.27344 1.8594-0.38281 3.7734-0.71094-2.2422 0.10938 0.32813-0.054688 1.5312-0.10937 3.0625-0.21875 4.5938-0.21875 0.60156 0 2.4062-0.16406 2.9531 0.16406-0.54687-0.054687-1.1484-0.16406-1.6953-0.21875 0.65625 0.10938 1.3125 0.21875 1.9141 0.38281 1.6406 0.38281 3.1719 0.875 4.8125 1.3672 3.2266 0.98438-2.5703-1.3672 0.49219 0.21875 0.875 0.4375 1.75 0.875 2.5703 1.3125 1.4766 0.82031 3.6641 1.8594 4.8125 3.1172-1.8047-2.0234-1.1484-0.875-0.4375-0.32812 0.49219 0.38281 0.92969 0.82031 1.3672 1.2031 1.8594 1.6953 3.6641 3.5547 5.25 5.5234 2.2422 2.7344-1.8047-2.5156 0.27344 0.38281 0.82031 1.0938 1.5312 2.2422 2.2969 3.3906 1.3672 2.1875 2.625 4.4844 3.7188 6.8359 0.32813 0.65625 0.54688 1.3672 0.92969 2.0234-1.8594-3.6641-0.60156-1.4766-0.27344-0.49219 0.4375 1.2031 0.875 2.4062 1.2578 3.6094 0.98438 3.0625 1.8047 6.125 2.4062 9.2422 0.27344 1.3672 0.49219 2.7344 0.71094 4.1016 0.49219 3.0625-0.32812-3.3359-0.054687-0.21875 0.10938 0.875 0.16406 1.75 0.27344 2.625 0.27344 3.3359 0.38281 6.6719 0.38281 10.008-0.054687 6.0156-0.71094 11.977-1.3125 17.938-0.60156 5.6875-1.2578 11.32-2.0234 17.008l-0.65625 4.9219c-0.054688 0.38281-0.4375 3.1719-0.10938 0.65625 0.32813-2.5156-0.054687 0.32812-0.10937 0.71094-0.4375 3.3906-0.92969 6.7266-1.4219 10.117-1.75 12.195-3.6094 24.336-5.5781 36.531-0.82031 4.9766-1.5859 9.8984-2.4062 14.875-0.76563 4.4844-0.38281 8.2578 2.4609 11.922 2.625 3.3906 6.3984 5.4141 10.719 5.4141h25.211 53.102 46.977 10.609 0.60156c1.1484 0 2.2969 0.054688 3.4453 0.16406 3.0625 0.27344-2.5156-0.49219-0.27344-0.054687 0.82031 0.16406 1.6953 0.32812 2.5156 0.54687 1.4219 0.38281 2.7891 0.82031 4.2109 1.3125 0.32813 0.10938 0.65625 0.32813 1.0391 0.38281 0.10938 0.054687-2.7891-1.3672-1.5859-0.65625 0.71094 0.4375 1.5312 0.76562 2.2422 1.1484 1.3672 0.76563 2.625 1.6953 3.9375 2.5156 1.2031 0.71094-1.4219-1.1484-1.3125-1.0391 0.21875 0.27344 0.54688 0.4375 0.82031 0.65625 0.60156 0.54688 1.2578 1.0938 1.8594 1.6953 1.0938 1.0938 2.0234 2.3516 3.1719 3.3906 0.98437 0.92969-1.0938-1.4219-1.0391-1.3672 0.16406 0.32812 0.4375 0.60156 0.60156 0.875 0.4375 0.71094 0.92969 1.3672 1.3672 2.0781 0.76562 1.2578 1.3672 2.5156 2.0234 3.8281 1.0391 2.0234-1.1484-3.2266-0.10937-0.21875 0.27344 0.82031 0.54687 1.5859 0.76562 2.4609 0.4375 1.4219 0.71094 2.8984 0.98438 4.3203 0.4375 2.4062-0.27344-3.1172-0.10938-0.65625 0.054688 1.0391 0.10938 2.0234 0.16406 3.0625 0 1.5312-0.21875 3.0625-0.21875 4.5938 0 0.16406 0.54688-3.2266 0.21875-1.75-0.054687 0.38281-0.10938 0.71094-0.21875 1.0938-0.16406 0.82031-0.38281 1.6953-0.60156 2.5156-0.4375 1.5312-1.0938 3.0078-1.5312 4.4844-0.054687 0.10938 1.3672-2.7891 0.65625-1.5859-0.16406 0.32812-0.32812 0.65625-0.49219 0.98437-0.38281 0.76563-0.76562 1.4766-1.2031 2.2422-0.38281 0.60156-0.76562 1.2031-1.1484 1.8047-0.32812 0.4375-1.8594 2.5156-0.38281 0.65625 1.4766-1.8594-0.32812 0.38281-0.76562 0.82031-0.54688 0.60156-1.1484 1.2031-1.75 1.8047-0.49219 0.49219-1.0391 0.98437-1.5859 1.4766-0.4375 0.38281-2.4062 1.9688-0.54688 0.54688 1.8594-1.4219-0.21875 0.10938-0.65625 0.4375-0.82031 0.54688-1.6406 1.0391-2.4609 1.5312-0.60156 0.38281-1.2578 0.71094-1.9141 1.0391-0.49219 0.27344-2.8984 1.3125-0.65625 0.38281 2.1875-0.92969-0.21875 0.054688-0.76562 0.21875-0.82031 0.27344-1.6406 0.54688-2.4609 0.76562-0.71094 0.21875-1.4219 0.38281-2.1328 0.54688-0.49219 0.10938-3.7188 0.60156-1.1484 0.27344 2.4609-0.32813-0.21875 0-0.82031 0.054687-0.875-0.16406-1.75-0.10938-2.6797-0.10938-7.1641 0.054688-14 6.2344-13.672 13.672 0.32812 7.3281 6.0156 13.727 13.672 13.672 17.5-0.16406 33.031-8.6406 43.312-22.641 9.4609-12.906 11.922-31.391 6.3438-46.375-5.9062-15.805-18.375-28.164-34.727-32.922-6.0156-1.75-12.195-2.0234-18.375-2.0234h-41.945-57.094c-10.938 0-21.984-0.38281-32.922 0h-0.49219c4.375 5.7422 8.8047 11.539 13.18 17.281 4.1562-24.938 7.9844-49.984 11.211-75.031 1.4766-11.703 3.2266-23.57 3.3359-35.383 0.10938-14.602-2.625-28.875-8.4766-42.219-5.0312-11.539-13.07-21.438-23.188-28.875-13.453-9.8438-31.664-12.852-47.469-7.3828-10.719 3.7188-19.414 10.336-25.812 19.688-2.8438 4.1016-4.8672 8.6406-4.8672 13.672v41.617 7.7656c0 2.2422 0.38281 5.0312-0.27344 7.1641 0.054687-0.54688 0.10937-1.1484 0.21875-1.6953-0.10938 0.65625-0.21875 1.3125-0.38281 1.9141-0.21875 0.98437-0.4375 1.9141-0.76562 2.8438-0.16406 0.60156-0.38281 1.2578-0.60156 1.8594-0.10938 0.32813-0.21875 0.60156-0.32813 0.92969-0.54687 1.4219-0.49219 1.2031 0.21875-0.54688-0.38281 0.49219-0.71094 1.4219-0.98437 2.0234-1.3125 2.5703-2.5703 5.1953-3.8828 7.7656-10.227 20.672-20.453 41.344-30.734 62.016-5.8516 11.867-11.758 23.734-17.609 35.602-0.4375 0.875-0.875 1.8047-1.3672 2.7344-0.21875 0.38281-0.38281 0.76562-0.60156 1.1484-0.32812 0.60156-0.71094 1.1484-1.0391 1.6953-1.4219 2.4062 2.1875-2.2422 0.21875-0.27344-0.82031 0.82031-2.2422 1.75-2.8438 2.7344 0.49219-0.38281 1.0391-0.82031 1.5312-1.2031-0.4375 0.32813-0.875 0.60156-1.3125 0.875-0.82031 0.49219-2.0234 0.875-2.7344 1.4766 0.60156-0.27344 1.2031-0.49219 1.8047-0.76562-0.49219 0.16406-0.98438 0.32812-1.4766 0.49219-0.49219 0.16406-0.98437 0.27344-1.5312 0.4375-0.27344 0.054687-0.49219 0.10937-0.76562 0.16406-1.4766 0.27344-1.0391 0.21875 1.2578-0.10938-0.65625-0.16406-1.75 0.10938-2.4062 0.10938h-2.3516-11.375-6.8359c-7.3828 0-13.672 6.2891-13.672 13.672v21.602 51.844 62.781 54.305c0 8.8047-0.32812 17.609 0 26.414v0.38281c0 5.8516 4.2109 11.758 10.062 13.18 9.5156 2.2969 19.25 4.1016 28.602 6.9453 5.4688 1.6406 10.664 3.6641 16.297 4.8125 7.3281 1.5312 14.93 2.4062 22.422 2.5156h3.8828 55.672 83.344 54.141c2.2422 0 4.4844 0 6.7812-0.27344 14.711-1.8047 27.836-9.625 35.438-22.586 13.398-22.859 3.9922-54.578-20.672-65.188-6.1797-2.6797-12.414-4.2109-19.195-4.2656v27.344h15.312c11.266 0 21.383-3.7734 30.188-10.719 9.7891-7.7109 15.258-19.469 16.516-31.664 1.2578-12.086-3.0625-23.844-10.5-33.195-8.4219-10.664-21.984-16.57-35.438-16.734v27.344h15.312c11.266 0 21.383-3.7734 30.188-10.719 9.7891-7.7109 15.258-19.469 16.516-31.664 1.2578-12.086-3.0625-23.844-10.5-33.195-8.4219-10.664-21.984-16.57-35.438-16.734v27.344h9.6797c7.1641 0 14-6.2891 13.672-13.672-0.32812-7.5469-5.9609-13.781-13.672-13.781z"></path>   <path d="m220.88 496.12h-76.344c-3.0625 0-6.1797-0.16406-9.2422 0-2.5703 0.10938 3.6641 0.60156 0 0-2.5156-0.4375 2.7344 1.6953 0.65625 0.32812-0.16406-0.10938-0.92969-0.65625-1.2031-0.71094l1.6406 1.3125c-0.32812-0.32813-0.71094-0.60156-1.0391-0.98438-1.8594-1.6406 1.5312 2.7891 0.4375 0.54688-0.10937-0.21875-0.21875-0.38281-0.32812-0.60156-0.60156-1.2578-0.4375-0.82031 0.54687 1.3125 0-0.32812-0.82031-3.8281-0.38281-1.0391 0.32812 2.2969 0.16406 0.21875 0.16406-0.4375-0.054687-6.0703 0-12.195 0-18.266v-84.219-96.086-33.195-9.3516c0-1.2031 0.27344-2.8438 0-4.0469 0.54688 2.2969-0.60156 2.8438-0.16406 1.4766 0.054688-0.21875 0.10938-0.49219 0.16406-0.71094 0.4375-1.3672 0.21875-0.92969-0.60156 1.2578 0.27344-0.32813 0.92969-1.4219 1.0391-1.8047l-1.3125 1.6406c0.32813-0.32812 0.60156-0.71094 0.98438-1.0391 1.6406-1.8594-2.7891 1.5312-0.54688 0.4375 0.32813-0.16406 1.0391-0.49219 1.2578-0.65625-0.65625 0.27344-1.3125 0.54688-1.9688 0.82031 0.4375-0.16406 0.92969-0.27344 1.3672-0.38281 2.5703-0.82031-3.4453 0.054688-0.71094 0.16406 0.82031 0.054687 1.6406 0 2.5156 0h16.242 48.18 16.023c0.875 0 1.8047 0.054687 2.6797 0 0.65625-0.054687 1.6406 0.16406-0.32812-0.16406-2.5703-0.38281-0.10938 0.054688 0.32812 0.16406 2.5156 0.4375-2.7344-1.6953-0.65625-0.32812 0.21875 0.10938 0.38281 0.21875 0.60156 0.32812 1.1484 0.76562 0.82031 0.49219-1.0391-0.92969 0.21875 0.32812 1.1484 1.2578 1.4766 1.4766-2.0781-1.3125-1.4766-2.2969-0.92969-1.0391 0.10938 0.21875 0.21875 0.38281 0.32812 0.60156 0.60156 1.2578 0.4375 0.82031-0.54688-1.3125 0.16406 0.4375 0.27344 0.92969 0.38281 1.3672 0.27344 1.4219 0.21875 0.92969-0.16406-1.4766-0.27344 1.1484 0 2.7891 0 3.9375v9.2969 78.422 98.438c0 18.32 0.10938 36.641 0 55.016v0.76562c0.16406 2.7344 0.92969-3.2266 0.16406-0.71094-0.054688 0.21875-0.10938 0.49219-0.16406 0.71094-0.4375 1.3672-0.21875 0.92969 0.60156-1.2578-0.27344 0.32813-0.71094 1.1484-0.875 1.5312-0.49219 1.4219 2.4062-2.4062 0.60156-0.82031l-0.49219 0.49219c-1.0391 0.92969-0.65625 0.65625 1.1484-0.82031-0.38281 0.10938-1.5312 0.76562-1.8047 1.0391 0.65625-0.27344 1.3125-0.54688 1.9688-0.82031-0.4375 0.16406-0.92969 0.27344-1.3672 0.38281-2.5703 0.875 3.5-0.16406 0.71094-0.054688-7.1641 0.21875-14 6.125-13.672 13.672 0.32812 7.2188 6.0156 13.891 13.672 13.672 15.039-0.4375 26.633-12.141 26.906-27.18 0.054688-1.8047 0-3.6094 0-5.4141v-27.727-94.883-91.164-23.242c0-3.7188-0.16406-7.4375-1.4766-10.992-3.2266-8.8594-10.773-16.133-20.289-17.719-2.4609-0.38281-4.6484-0.54688-7.0547-0.54688h-81.375-3.0625c-9.5156 0.4375-18.648 5.6875-23.023 14.328-2.3516 4.7031-3.1172 9.625-3.1172 14.766v22.695 90.781 95.211 28.164 5.6875c0.16406 14.492 10.992 26.086 25.375 27.18 3.2812 0.27344 6.6172 0.10938 9.8984 0.10938h21.219 47.469 8.5312c7.1641 0 14-6.2891 13.672-13.672-0.32813-7.4922-6.0156-13.727-13.672-13.727z"></path>   <use x="70" y="568.203125" xlink:href="#v"></use>   <use x="72.007812" y="568.203125" xlink:href="#f"></use>   <use x="73.355469" y="568.203125" xlink:href="#a"></use>   <use x="75.210937" y="568.203125" xlink:href="#e"></use>   <use x="77.054688" y="568.203125" xlink:href="#d"></use>   <use x="78.363281" y="568.203125" xlink:href="#a"></use>   <use x="80.214844" y="568.203125" xlink:href="#k"></use>   <use x="83.125" y="568.203125" xlink:href="#j"></use>   <use x="85.082031" y="568.203125" xlink:href="#i"></use>   <use x="87.816406" y="568.203125" xlink:href="#c"></use>   <use x="89.445312" y="568.203125" xlink:href="#b"></use>   <use x="91.390625" y="568.203125" xlink:href="#e"></use>   <use x="93.238281" y="568.203125" xlink:href="#c"></use>   <use x="94.863281" y="568.203125" xlink:href="#b"></use>   <use x="96.8125" y="568.203125" xlink:href="#e"></use>   <use x="98.65625" y="568.203125" xlink:href="#h"></use>   <use x="100.601562" y="568.203125" xlink:href="#u"></use>   <use x="103.375" y="568.203125" xlink:href="#c"></use>   <use x="105" y="568.203125" xlink:href="#t"></use>   <use x="105.9375" y="568.203125" xlink:href="#h"></use>   <use x="107.882812" y="568.203125" xlink:href="#s"></use>   <use x="109.84375" y="568.203125" xlink:href="#b"></use>   <use x="70" y="570.9375" xlink:href="#r"></use>   <use x="71.191406" y="570.9375" xlink:href="#f"></use>   <use x="72.539062" y="570.9375" xlink:href="#g"></use>   <use x="74.417969" y="570.9375" xlink:href="#q"></use>   <use x="78.21875" y="570.9375" xlink:href="#d"></use>   <use x="79.523438" y="570.9375" xlink:href="#b"></use>   <use x="81.472656" y="570.9375" xlink:href="#a"></use>   <use x="84.277344" y="570.9375" xlink:href="#p"></use>   <use x="86.566406" y="570.9375" xlink:href="#g"></use>   <use x="88.445312" y="570.9375" xlink:href="#o"></use>   <use x="90.390625" y="570.9375" xlink:href="#h"></use>   <use x="93.289062" y="570.9375" xlink:href="#n"></use>   <use x="95.292969" y="570.9375" xlink:href="#f"></use>   <use x="96.644531" y="570.9375" xlink:href="#g"></use>   <use x="98.519531" y="570.9375" xlink:href="#m"></use>   <use x="99.457031" y="570.9375" xlink:href="#a"></use>   <use x="101.3125" y="570.9375" xlink:href="#l"></use>   <use x="102.933594" y="570.9375" xlink:href="#d"></use>  </g> </svg>